<svg width="33" height="32" viewBox="0 0 33 32" fill="none" xmlns="http://www.w3.org/2000/svg">
<rect x="0.5" width="32" height="32" rx="16" fill="#111111"/>
<path d="M15.9141 18.3281H17.6016L18.6953 19.7344C19.4375 19.0312 19.8984 17.8906 19.8984 16.3438C19.8984 13.5938 18.4453 12.1094 16.5078 12.1094C14.5547 12.1094 13.1016 13.5938 13.1016 16.3438C13.1016 19.0938 14.5547 20.5781 16.5078 20.5781C16.8672 20.5781 17.2031 20.5312 17.5234 20.4219L15.9141 18.3281ZM21.6016 16.3438C21.6016 18.4219 20.8828 20.0391 19.7109 21.0312L21.2422 23.0156H19.4766L18.5234 21.7656C17.9141 22.0234 17.2344 22.1562 16.5078 22.1562C13.5547 22.1562 11.3984 19.9531 11.3984 16.3438C11.3984 12.7188 13.5547 10.5312 16.5078 10.5312C19.4297 10.5312 21.6016 12.7188 21.6016 16.3438Z" fill="#EEEEEE"/>
</svg>
