<svg width="32" height="32" viewBox="0 0 32 32" fill="none" xmlns="http://www.w3.org/2000/svg">
<rect width="32" height="32" rx="16" fill="url(#paint0_linear_14_445)"/>
<path d="M10.646 10.98V21.034H8.919V10.98H10.646ZM7.742 11.838V13.213H4.563V17.272C5.45767 17.2647 6.18 17.2427 6.73 17.206C7.28 17.1693 7.81533 17.0997 8.336 16.997L8.479 18.405C7.89233 18.5297 7.269 18.6103 6.609 18.647C5.949 18.6763 4.99567 18.691 3.749 18.691H2.858V11.838H7.742ZM15.8223 12.08C15.8223 13.0773 15.7416 13.9427 15.5803 14.676H16.3283V11.178H17.9343V20.583H16.3283V16.029H15.1403C14.8689 16.623 14.4986 17.173 14.0293 17.679C13.5599 18.185 12.9659 18.6543 12.2473 19.087L11.2793 17.91C11.8366 17.58 12.2986 17.2353 12.6653 16.876C13.0393 16.5093 13.3399 16.1133 13.5673 15.688L11.5653 15.897L11.3783 14.467L14.0293 14.357C14.0953 14.0563 14.1393 13.7483 14.1613 13.433H11.8953V12.08H15.8223ZM20.0683 10.98V20.99H18.4293V10.98H20.0683ZM28.8745 10.969V21.023H27.1365V10.969H28.8745ZM23.4185 11.629C23.9318 11.629 24.3902 11.7793 24.7935 12.08C25.1968 12.3733 25.5122 12.795 25.7395 13.345C25.9742 13.8877 26.0915 14.522 26.0915 15.248C26.0915 15.9813 25.9742 16.623 25.7395 17.173C25.5122 17.723 25.1968 18.1483 24.7935 18.449C24.3902 18.7423 23.9318 18.889 23.4185 18.889C22.9052 18.889 22.4432 18.7423 22.0325 18.449C21.6292 18.1483 21.3102 17.723 21.0755 17.173C20.8482 16.623 20.7345 15.9813 20.7345 15.248C20.7345 14.522 20.8482 13.8877 21.0755 13.345C21.3102 12.795 21.6292 12.3733 22.0325 12.08C22.4432 11.7793 22.9052 11.629 23.4185 11.629ZM23.4185 13.202C23.1032 13.202 22.8538 13.3743 22.6705 13.719C22.4872 14.0563 22.3955 14.566 22.3955 15.248C22.3955 15.9373 22.4872 16.4543 22.6705 16.799C22.8538 17.1437 23.1032 17.316 23.4185 17.316C23.7338 17.316 23.9832 17.1437 24.1665 16.799C24.3498 16.4543 24.4415 15.9373 24.4415 15.248C24.4415 14.566 24.3498 14.0563 24.1665 13.719C23.9832 13.3743 23.7338 13.202 23.4185 13.202Z" fill="white"/>
<defs>
<linearGradient id="paint0_linear_14_445" x1="16" y1="0" x2="16" y2="32" gradientUnits="userSpaceOnUse">
<stop stop-color="#0082FF"/>
<stop offset="1" stop-color="#B2D9FF"/>
</linearGradient>
</defs>
</svg>
